<svg width="700" height="676" viewBox="0 0 700 676" fill="none" xmlns="http://www.w3.org/2000/svg">
<g clip-path="url(#clip0_1349_1062)">
<path d="M171.591 127.558H183.933V95H171.591C158.505 94.9881 145.546 97.6234 133.455 102.755C121.364 107.886 110.377 115.414 101.124 124.906C91.8718 134.398 84.5344 145.668 79.532 158.072C74.5298 170.477 71.961 183.771 71.9726 197.194V271.353C71.9991 287.056 66.1696 302.173 55.6791 313.608C45.1885 325.042 30.8318 331.927 15.5518 332.851L16.4333 349.13L15.5518 365.408C30.8318 366.332 45.1885 373.217 55.6791 384.651C66.1696 396.086 71.9991 411.204 71.9726 426.906V512.369C71.9258 540.729 82.8569 567.947 102.363 588.042C121.869 608.138 148.354 619.466 175.999 619.538V586.981C156.83 586.968 138.45 579.151 124.895 565.247C111.341 551.342 103.721 532.486 103.709 512.822V426.906C103.723 411.567 100.074 396.459 93.0814 382.901C86.089 369.343 75.9663 357.748 63.5976 349.13C75.931 340.475 86.0269 328.872 93.0153 315.322C100.003 301.773 103.673 286.682 103.709 271.353V197.194C103.79 178.752 110.969 161.087 123.681 148.046C136.394 135.004 153.612 127.641 171.591 127.558Z" fill="black"/>
<path d="M538.33 127.558H525.987V95H538.33C564.688 95.0719 589.94 105.876 608.537 125.039C627.133 144.201 637.554 170.154 637.507 197.194V271.353C637.48 287.056 643.31 302.173 653.8 313.608C664.291 325.042 678.651 331.927 693.926 332.851L693.046 349.13L693.926 365.408C678.651 366.332 664.291 373.217 653.8 384.651C643.31 396.086 637.48 411.204 637.507 426.906V512.369C637.554 540.729 626.622 567.947 607.117 588.042C587.611 608.138 561.125 619.466 533.481 619.538V586.98C552.649 586.968 571.03 579.151 584.584 565.247C598.138 551.342 605.758 532.486 605.77 512.822V426.906C605.756 411.567 609.406 396.459 616.398 382.901C623.39 369.343 633.513 357.748 645.882 349.13C633.548 340.475 623.452 328.872 616.464 315.322C609.476 301.773 605.806 286.682 605.77 271.353V197.194C605.816 188.074 604.107 179.034 600.74 170.594C597.372 162.153 592.413 154.477 586.147 148.007C579.881 141.538 572.432 136.4 564.226 132.891C556.02 129.382 547.22 127.569 538.33 127.558Z" fill="black"/>
<path d="M470.447 226.141H517.612L419.316 320.648C401.68 337.018 378.745 346.083 354.961 346.083C331.177 346.083 308.241 337.018 290.606 320.648L192.31 226.141H239.474L313.967 297.586C325.091 308.059 339.641 313.871 354.74 313.871C369.84 313.871 384.389 308.059 395.513 297.586L470.447 226.141Z" fill="black"/>
<path d="M239.034 488.407H191.87L290.606 393.448C308.145 376.876 331.117 367.676 354.961 367.676C378.805 367.676 401.778 376.876 419.316 393.448L518.052 488.407H470.888L395.954 416.057C384.83 405.584 370.28 399.773 355.182 399.773C340.083 399.773 325.533 405.584 314.409 416.057L239.034 488.407Z" fill="black"/>
</g>
<defs>
<clipPath id="clip0_1349_1062">
<rect width="700" height="528.889" fill="white" transform="translate(0 95)"/>
</clipPath>
</defs>
</svg>
