<svg width="133" height="32" viewBox="0 0 133 32" fill="none" xmlns="http://www.w3.org/2000/svg">
<g clip-path="url(#clip0_1346_848)">
<path d="M54.2444 14.1806L55.9444 10.8811H58.7977L55.9045 15.8058L58.8716 20.8454H56.0094L54.2839 17.4747L52.5553 20.8454H49.7017L52.6688 15.8058L49.7756 10.8811H52.6318L54.2444 14.1806ZM63.3314 17.2969H61.9798V20.8153H59.5064V10.8811H63.5583C64.7965 10.8811 65.7347 11.1355 66.4116 11.68C66.7545 11.9428 67.0286 12.2799 67.2113 12.664C67.3936 13.0481 67.4802 13.4683 67.4633 13.8906C67.4845 14.4999 67.3286 15.1028 67.0124 15.6307C66.6814 16.1217 66.2128 16.5117 65.6608 16.7551L67.8002 20.7769V20.8864H65.1339L63.3314 17.2969ZM62.0168 15.4501H63.5953C63.7874 15.4696 63.982 15.447 64.1638 15.384C64.3457 15.3211 64.511 15.2193 64.6465 15.0862C64.8964 14.8039 65.0294 14.4425 65.0205 14.0712C65.0341 13.8862 65.0081 13.7005 64.9435 13.5258C64.8794 13.3511 64.7783 13.1912 64.6465 13.0562C64.5084 12.9264 64.3432 12.827 64.1617 12.7647C63.9803 12.7023 63.7869 12.6786 63.5953 12.695H62.0168V15.4501ZM71.3312 17.4418V20.8153H68.8574V10.8811H72.9888C73.7149 10.8667 74.4347 11.0157 75.0912 11.3161C75.6665 11.5839 76.156 11.997 76.5079 12.5117C76.8478 13.0454 77.0173 13.6639 76.9956 14.2901C77.0105 14.7315 76.9204 15.1703 76.7318 15.5726C76.5431 15.975 76.261 16.33 75.9075 16.6101C75.1932 17.1901 74.207 17.4802 72.9403 17.4802H71.3282L71.3312 17.4418ZM71.3312 15.5951H72.9433C73.1417 15.6145 73.3419 15.5919 73.5301 15.5291C73.7188 15.4663 73.8908 15.3646 74.0345 15.2312C74.1683 15.1051 74.2711 14.9517 74.3357 14.7823C74.4007 14.6128 74.4254 14.4316 74.4084 14.2518C74.4339 13.8458 74.3005 13.4453 74.0345 13.13C73.9044 12.9856 73.7425 12.8715 73.5603 12.7961C73.3784 12.7208 73.1808 12.6862 72.9828 12.695H71.3312V15.5951ZM84.0823 19.0013H88.4095V20.8508H81.5804V10.8811H84.0598V19.0013H84.0823ZM95.7231 16.6101H91.8296V19.0013H96.4484V20.8508H89.3643V10.8811H96.4994V12.7306H91.8806V14.8318H95.7486L95.7231 16.6101ZM97.2986 20.8153V10.8811H100.639C101.515 10.8722 102.378 11.0824 103.144 11.4912C103.872 11.8859 104.463 12.4787 104.845 13.1957C105.253 13.9456 105.473 14.778 105.485 15.6252V16.0958C105.503 16.9524 105.296 17.7994 104.884 18.5581C104.485 19.2757 103.887 19.8724 103.158 20.2819C102.429 20.6914 101.596 20.8978 100.753 20.8782H97.3126L97.2986 20.8153ZM99.778 12.7306V19.0013H100.628C100.946 19.0183 101.263 18.9613 101.553 18.8351C101.843 18.709 102.097 18.5173 102.294 18.2763C102.672 17.7711 102.861 17.0461 102.861 16.1012V15.6662C102.861 14.6868 102.672 13.9618 102.294 13.4912C102.092 13.247 101.832 13.0537 101.536 12.9274C101.24 12.8012 100.917 12.7459 100.594 12.7661H99.7695L99.778 12.7306ZM114.997 19.6169C114.524 20.0747 113.939 20.4113 113.297 20.5964C112.512 20.8521 111.686 20.9752 110.857 20.9602C109.506 20.9602 108.415 20.5608 107.627 19.7619C106.839 18.963 106.389 17.8468 106.312 16.4268V15.5568C106.298 14.6733 106.478 13.7969 106.839 12.985C107.173 12.2864 107.707 11.6948 108.378 11.2806C109.083 10.8817 109.89 10.6808 110.707 10.7005C111.982 10.7005 112.997 10.9906 113.711 11.5706C114.425 12.1506 114.844 12.985 114.949 14.1068H112.546C112.514 13.655 112.312 13.2301 111.98 12.9112C111.646 12.6509 111.223 12.5219 110.795 12.55C110.503 12.5432 110.215 12.6097 109.958 12.743C109.701 12.8764 109.485 13.072 109.33 13.3106C108.943 13.9772 108.761 14.7365 108.806 15.4994V16.1149C108.806 17.0944 108.993 17.855 109.33 18.3638C109.667 18.8727 110.231 19.1245 110.982 19.1245C111.509 19.1596 112.031 19.0046 112.447 18.6894V17.13H110.721V15.4884H114.926V19.6169H114.997ZM122.696 16.6074H118.792V18.9986H123.408V20.8481H116.323V10.8811H123.459V12.7306H118.84V14.8318H122.745V16.6101L122.696 16.6074ZM128.14 17.2941H126.788V20.8153H124.272V10.8811H128.327C129.568 10.8811 130.506 11.1355 131.18 11.68C131.524 11.9423 131.798 12.2794 131.98 12.6636C132.163 13.0478 132.249 13.4682 132.232 13.8906C132.253 14.4999 132.097 15.1028 131.781 15.6307C131.45 16.1217 130.981 16.5117 130.429 16.7551L132.572 20.7769V20.8864H129.905L128.14 17.2941ZM126.788 15.4474H128.364C128.556 15.4669 128.75 15.4443 128.932 15.3813C129.114 15.3183 129.279 15.2165 129.415 15.0835C129.661 14.8007 129.791 14.4405 129.78 14.0712C129.793 13.8863 129.767 13.7008 129.703 13.5261C129.638 13.3515 129.537 13.1915 129.406 13.0562C129.27 12.9275 129.106 12.8287 128.925 12.7665C128.746 12.7042 128.554 12.6798 128.364 12.695H126.785L126.788 15.4474Z" fill="currentColor"/>
<path d="M10.0311 1.96987H10.8245V2.4257e-06H10.0311C9.18988 -0.000717284 8.3568 0.158724 7.57947 0.469202C6.80219 0.779684 6.09591 1.23511 5.50108 1.80941C4.90629 2.38372 4.4346 3.06563 4.11302 3.81614C3.79145 4.56665 3.62631 5.37099 3.62706 6.18318V10.6701C3.62876 11.6202 3.254 12.5349 2.57961 13.2267C1.90522 13.9185 0.982286 14.3351 0 14.391L0.0566726 15.3759L0 16.3608C0.982286 16.4167 1.90522 16.8333 2.57961 17.5251C3.254 18.2169 3.62876 19.1317 3.62706 20.0817V25.2526C3.62404 26.9685 4.32676 28.6153 5.5807 29.8311C6.83465 31.047 8.5373 31.7324 10.3144 31.7367V29.7669C9.08216 29.7662 7.90058 29.2932 7.02922 28.4519C6.15786 27.6106 5.66802 26.4697 5.66726 25.28V20.0817C5.66815 19.1536 5.43356 18.2395 4.98405 17.4192C4.53454 16.5989 3.88379 15.8974 3.08866 15.3759C3.88153 14.8523 4.53054 14.1502 4.9798 13.3304C5.42901 12.5106 5.66496 11.5976 5.66726 10.6701V6.18318C5.67248 5.06732 6.13394 3.99855 6.95116 3.20949C7.76843 2.42043 8.87532 1.97491 10.0311 1.96987Z" fill="currentColor"/>
<path d="M33.6069 1.96987H32.8135V0H33.6069C35.3014 0.00434859 36.9247 0.658059 38.1202 1.81748C39.3157 2.97689 39.9856 4.54716 39.9826 6.18318V10.6701C39.9809 11.6202 40.3556 12.5349 41.03 13.2267C41.7044 13.9185 42.6275 14.3351 43.6095 14.391L43.553 15.3759L43.6095 16.3608C42.6275 16.4167 41.7044 16.8333 41.03 17.5251C40.3556 18.2169 39.9809 19.1317 39.9826 20.0817V25.2526C39.9856 26.9685 39.2829 28.6153 38.0289 29.8311C36.775 31.047 35.0723 31.7324 33.2952 31.7367V29.7669C34.5275 29.7662 35.7091 29.2932 36.5804 28.4519C37.4517 27.6106 37.9416 26.4697 37.9424 25.28V20.0817C37.9415 19.1536 38.1761 18.2395 38.6256 17.4192C39.0751 16.5989 39.7258 15.8974 40.521 15.3759C39.7281 14.8523 39.0791 14.1502 38.6298 13.3304C38.1806 12.5106 37.9447 11.5976 37.9424 10.6701V6.18318C37.9454 5.63138 37.8354 5.08443 37.619 4.57374C37.4025 4.06304 37.0837 3.59864 36.6809 3.20718C36.2781 2.81572 35.7992 2.5049 35.2717 2.29257C34.7442 2.08025 34.1784 1.97058 33.6069 1.96987Z" fill="currentColor"/>
<path d="M29.243 7.93457H32.275L25.956 13.6526C24.8223 14.6431 23.3479 15.1916 21.8189 15.1916C20.29 15.1916 18.8155 14.6431 17.6818 13.6526L11.3628 7.93457H14.3948L19.1836 12.2573C19.8987 12.891 20.8341 13.2426 21.8047 13.2426C22.7754 13.2426 23.7107 12.891 24.4258 12.2573L29.243 7.93457Z" fill="currentColor"/>currentColor
<path d="M14.3664 23.8028H11.3345L17.6818 18.0573C18.8093 17.0547 20.2861 16.498 21.8189 16.498C23.3518 16.498 24.8286 17.0547 25.956 18.0573L32.3034 23.8028H29.2714L24.4542 19.4253C23.7391 18.7916 22.8037 18.44 21.8331 18.44C20.8625 18.44 19.9271 18.7916 19.212 19.4253L14.3664 23.8028Z" fill="currentColor"/>
</g>
<defs>
<clipPath id="clip0_1346_848">
<rect width="132.571" height="32" fill="white"/>
</clipPath>
</defs>
</svg>
