<svg width="384" height="291" viewBox="0 0 384 291" fill="none" xmlns="http://www.w3.org/2000/svg">
<g clip-path="url(#clip0_1346_864)">
<path d="M94.1316 17.8602H100.902V2.1993e-05H94.1316C86.9535 -0.00650338 79.8446 1.4391 73.2114 4.2541C66.5785 7.06914 60.5516 11.1983 55.4757 16.4053C50.4002 21.6124 46.3751 27.7951 43.6309 34.5997C40.8869 41.4043 39.4777 48.697 39.4841 56.0608V96.7424C39.4986 105.356 36.3007 113.649 30.5459 119.922C24.7911 126.195 16.9154 129.972 8.5332 130.478L9.01681 139.408L8.5332 148.338C16.9154 148.845 24.7911 152.622 30.5459 158.894C36.3007 165.167 39.4986 173.46 39.4841 182.074V228.957C39.4584 244.514 45.4549 259.445 56.1552 270.469C66.8556 281.493 81.3848 287.707 96.5497 287.746V269.886C86.0343 269.88 75.9515 265.591 68.5159 257.964C61.0803 250.336 56.9003 239.992 56.8938 229.205V182.074C56.9014 173.66 54.8996 165.372 51.0637 157.934C47.2279 150.497 41.6749 144.136 34.8898 139.408C41.6556 134.661 47.1938 128.295 51.0275 120.862C54.8608 113.429 56.8742 105.151 56.8938 96.7424V56.0608C56.9384 45.9437 60.8761 36.2535 67.8498 29.0994C74.8238 21.9452 84.2692 17.9058 94.1316 17.8602Z" fill="currentColor"/>
<path d="M295.312 17.8601H288.542V0H295.312C309.771 0.0394273 323.624 5.96641 333.826 16.4785C344.027 26.9905 349.744 41.2276 349.718 56.0608V96.7424C349.703 105.356 352.901 113.649 358.656 119.922C364.411 126.195 372.288 129.972 380.668 130.478L380.185 139.408L380.668 148.338C372.288 148.845 364.411 152.622 358.656 158.894C352.901 165.167 349.703 173.46 349.718 182.074V228.957C349.744 244.514 343.747 259.445 333.047 270.469C322.346 281.493 307.817 287.707 292.652 287.746V269.886C303.168 269.88 313.25 265.591 320.686 257.964C328.121 250.336 332.302 239.992 332.308 229.205V182.074C332.301 173.66 334.302 165.372 338.138 157.934C341.974 150.497 347.527 144.136 354.312 139.408C347.546 134.661 342.008 128.295 338.174 120.862C334.341 113.429 332.328 105.151 332.308 96.7424V56.0608C332.334 51.0579 331.395 46.0988 329.548 41.4686C327.701 36.8382 324.981 32.6277 321.544 29.0784C318.106 25.5292 314.02 22.7111 309.518 20.786C305.017 18.8609 300.189 17.8666 295.312 17.8601Z" fill="currentColor"/>
<path d="M258.074 71.9404H283.947L230.024 123.784C220.35 132.765 207.768 137.737 194.721 137.737C181.674 137.737 169.092 132.765 159.418 123.784L105.496 71.9404H131.368L172.233 111.133C178.336 116.879 186.317 120.067 194.6 120.067C202.883 120.067 210.865 116.879 216.967 111.133L258.074 71.9404Z" fill="currentColor"/>
<path d="M131.127 215.812H105.254L159.418 163.72C169.04 154.629 181.641 149.582 194.722 149.582C207.802 149.582 220.404 154.629 230.025 163.72L284.189 215.812H258.316L217.209 176.123C211.107 170.377 203.125 167.189 194.843 167.189C186.56 167.189 178.578 170.377 172.476 176.123L131.127 215.812Z" fill="currentColor"/>
</g>
<defs>
<clipPath id="clip0_1346_864">
<rect width="384" height="290.133" fill="white"/>
</clipPath>
</defs>
</svg>
